P3 5 5 255 0 0 0 0 0 0 0 0 0 0 0 0 0 0 0 0 0 0 10 0 0 20 0 0 
30 0 0 40 0 0 0 0 0 20 0 0 40 0 0 61 0 0 81 0 0 0 0 0 30 0 0 
61 0 0 91 0 0 122 0 0 0 0 0 40 0 0 81 0 0 122 0 0 163 0 0 